#!OML:ASF I:\salsa\salsa 7_09\Patient 1\Session 1\dancermale.ASF
:FULLY-SPECIFIED
:DEGREES
1340
root 1.84612 17.4286 4.63298 189.884 -350.635 178.641
lowerback -9.38845 -4.76767 -0.15508
upperback -3.29566 -6.11217 4.67844
thorax 2.34754 -2.88837 4.24222
lowerneck -9.56112 -3.04968 -3.96525
upperneck 21.4289 -2.06686 -2.73642
head 8.25173 -1.22827 -0.403569
rclavicle -8.53283e-014 2.70347e-014
rhumerus -44.1194 -1.01516 -73.6157
rradius 74.6376
rwrist -362.672
rhand -25.4609 -1.68519
rfingers 7.12502
rthumb 1.0664 -31.6623
lclavicle -8.53283e-014 2.70347e-014
lhumerus 32.4583 -23.0034 21.3303
lradius 94.5428
lwrist 84.0874
lhand -8.91419 67.0293
lfingers 7.12502
lthumb 17.029 -816.303
rfemur -16.8528 19.9682 4.2826
rtibia 18.5507
rfoot -16.25 8.9719
rtoes -3.2762
lfemur -16.0018 -3.56028 -13.5231
ltibia 19.9514
lfoot -21.5606 -2.06436
ltoes -26.9003
1341
root 1.60332 17.4522 4.62113 189.998 -348.031 178.397
lowerback -9.51194 -4.68614 0.106394
upperback -3.21559 -6.04883 4.41506
thorax 2.43784 -2.86813 3.81734
lowerneck -9.59688 -2.91685 -3.67719
upperneck 21.1296 -1.95907 -2.8961
head 8.14952 -1.18522 -0.494114
rclavicle 1.02871e-014 -4.92986e-014
rhumerus -44.1392 -2.27396 -73.9388
rradius 74.93
rwrist -363.071
rhand -26.2749 -1.92451
rfingers 7.12502
rthumb 0.280195 -31.9041
lclavicle 1.02871e-014 -4.92986e-014
lhumerus 28.2165 -25.3815 26.1854
lradius 97.0051
lwrist 83.3253
lhand -11.0593 66.3066
lfingers 7.12502
lthumb 14.9633 -815.746
rfemur -18.2553 18.2671 3.77506
rtibia 20.0234
rfoot -16.0977 5.58507
rtoes -6.44395
lfemur -15.8962 -1.98695 -14.9
ltibia 20.0299
lfoot -21.3744 -1.28864
ltoes -26.6944
1342
root 1.37449 17.4708 4.60613 190.019 -345.252 178.223
lowerback -9.66868 -4.50823 0.335745
upperback -3.02153 -5.8656 4.14575
thorax 2.66151 -2.79129 3.41285
lowerneck -9.57746 -2.7295 -3.05257
upperneck 20.6886 -1.82065 -3.20518
head 7.9833 -1.11592 -0.68493
rclavicle 6.13251e-014 -1.27222e-014
rhumerus -44.2397 -3.51241 -74.4632
rradius 75.3033
rwrist -363.572
rhand -27.1093 -2.32073
rfingers 7.12502
rthumb -0.525634 -32.2998
lclavicle 6.13251e-014 -1.27222e-014
lhumerus 23.7098 -27.4559 31.6559
lradius 99.1773
lwrist 82.1873
lhand -11.8384 65.6115
lfingers 7.12502
lthumb 14.2127 -815.105
rfemur -19.6712 16.4132 3.70093
rtibia 21.9073
rfoot -15.9571 2.19067
rtoes -8.25646
lfemur -15.6903 -0.291862 -16.1694
ltibia 20.1349
lfoot -21.335 -0.455384
ltoes -25.7312
1343
root 1.15733 17.4823 4.59175 190.003 -342.482 178.151
lowerback -9.77339 -4.29626 0.539674
upperback -2.79143 -5.63543 3.90704
thorax 2.90039 -2.69006 3.06379
lowerneck -9.70981 -2.54764 -3.11284
upperneck 20.3576 -1.67076 -2.95393
head 7.89967 -1.04352 -0.57869
rclavicle -1.14301e-014 -3.33958e-014
rhumerus -44.4763 -4.65887 -75.1258
rradius 75.7944
rwrist -363.999
rhand -27.6803 -3.03243
rfingers 7.12502
rthumb -1.07713 -33.0095
lclavicle -1.14301e-014 -3.33958e-014
lhumerus 18.9149 -29.203 37.7925
lradius 100.925
lwrist 79.8724
lhand -12.5151 64.3533
lfingers 7.12502
lthumb 13.5606 -813.892
rfemur -21.0383 14.5244 4.09001
rtibia 24.287
rfoot -16.0108 -1.04095
rtoes -7.5391
lfemur -15.4714 1.34891 -17.2897
ltibia 20.222
lfoot -21.332 0.540345
ltoes -24.4572
1344
root 0.945321 17.4861 4.57187 190.021 -339.869 178.245
lowerback -9.90786 -4.11461 0.948802
upperback -2.56415 -5.46131 3.69358
thorax 3.14196 -2.61123 2.61923
lowerneck -9.77409 -2.33306 -2.7068
upperneck 20.0395 -1.47629 -3.07181
head 7.7982 -0.945211 -0.666342
rclavicle 2.86747e-014 -2.06736e-014
rhumerus -44.798 -5.6392 -75.9131
rradius 76.2165
rwrist -364.29
rhand -27.9579 -3.32627
rfingers 7.12502
rthumb -1.34526 -33.3018
lclavicle 2.86747e-014 -2.06736e-014
lhumerus 13.9547 -30.5111 44.3076
lradius 102.39
lwrist 76.8859
lhand -13.0157 63.4153
lfingers 7.12502
lthumb 13.078 -812.985
rfemur -22.3236 12.4241 4.99837
rtibia 27.2978
rfoot -16.5731 -4.32791
rtoes -7.08668
lfemur -15.2649 2.56424 -18.2154
ltibia 20.2167
lfoot -21.2125 1.80432
ltoes -23.2137
1345
root 0.743366 17.482 4.54555 189.865 -337.397 178.35
lowerback -9.86777 -3.96158 1.41637
upperback -2.35661 -5.32507 3.43194
thorax 3.26169 -2.54986 2.10087
lowerneck -9.67668 -2.14081 -2.32023
upperneck 19.693 -1.2965 -3.2438
head 7.65982 -0.855428 -0.76753
rclavicle 7.60351e-015 -5.56597e-014
rhumerus -45.2044 -6.3374 -76.8053
rradius 76.4583
rwrist -364.659
rhand -28.076 -3.40943
rfingers 7.12502
rthumb -1.4593 -33.3842
lclavicle 7.60351e-015 -5.56597e-014
lhumerus 9.15909 -31.5118 50.759
lradius 103.505
lwrist 74.081
lhand -13.383 62.5691
lfingers 7.12502
lthumb 12.724 -812.161
rfemur -23.3493 9.98319 6.3202
rtibia 30.9592
rfoot -17.0036 -7.6189
rtoes -1.74623
lfemur -14.8334 3.30259 -19.0901
ltibia 20.0477
lfoot -21.0863 3.22449
ltoes -21.7217
